<svg width="57" height="56" viewBox="0 0 57 56" fill="none" xmlns="http://www.w3.org/2000/svg">
<g clip-path="url(#clip0_1_2570)">
<path d="M50.839 0.000732422H5.72739C2.72541 0.000732422 0.283203 2.44305 0.283203 5.44492V50.5549C0.283203 53.5569 2.72541 55.9991 5.72739 55.9991H50.839C53.841 55.9991 56.2832 53.5569 56.2832 50.5549V5.44492C56.2832 2.44305 53.841 0.000732422 50.839 0.000732422ZM5.72739 3.28194H50.839C52.0316 3.28194 53.002 4.25231 53.002 5.44492V12.9377H3.56441V5.44492C3.56441 4.25231 4.53478 3.28194 5.72739 3.28194ZM50.839 52.718H5.72739C4.53478 52.718 3.56441 51.7476 3.56441 50.555V16.2189H53.002V50.555C53.002 51.7476 52.0316 52.718 50.839 52.718Z" fill="#52D3FD"/>
<path d="M8.52223 9.85933C9.43466 9.85933 10.1743 9.12 10.1743 8.20798C10.1743 7.29597 9.43466 6.55664 8.52223 6.55664C7.60979 6.55664 6.87012 7.29597 6.87012 8.20798C6.87012 9.12 7.60979 9.85933 8.52223 9.85933Z" fill="#52D3FD"/>
<path d="M15.2404 9.86085C16.1528 9.85994 16.8917 9.11987 16.8908 8.20785C16.8899 7.29584 16.1495 6.55725 15.2371 6.55816C14.3246 6.55907 13.5857 7.29915 13.5866 8.21116C13.5875 9.12317 14.3279 9.86176 15.2404 9.86085Z" fill="#52D3FD"/>
<path d="M23.9104 8.20816C23.9113 7.29615 23.1723 6.55608 22.2599 6.55517C21.3475 6.55426 20.6071 7.29285 20.6061 8.20486C20.6052 9.11687 21.3442 9.85694 22.2566 9.85785C23.169 9.85877 23.9095 9.12017 23.9104 8.20816Z" fill="#52D3FD"/>
<path d="M41.8765 27.7152C41.8483 27.2006 41.5273 26.5799 40.9155 26.316L28.9505 20.9032C28.5276 20.7119 28.0436 20.7086 27.6181 20.8942L15.6696 26.108C15.1461 26.3434 14.6806 26.8886 14.6851 27.6116V40.8847C14.6851 41.5329 15.0668 42.1204 15.6591 42.3837L27.6076 47.6972C27.8118 47.6782 27.7635 48.0354 28.9401 47.6976L40.9051 42.3841C41.4978 42.1208 41.8799 41.5333 41.8799 40.8847V27.8107C41.8794 27.7884 41.8793 27.7934 41.8765 27.7152ZM28.2623 24.1931L36.33 27.8428L28.2871 31.6418L20.2315 27.6974L28.2623 24.1931ZM17.9664 30.2417L26.6337 34.4856V43.673L17.9664 39.8187V30.2417ZM29.9149 43.6745V34.5017L38.5988 30.4V39.8182L29.9149 43.6745Z" fill="#52D3FD"/>
</g>
<defs>
<clipPath id="clip0_1_2570">
<rect width="56" height="56" fill="white" transform="translate(0.283203)"/>
</clipPath>
</defs>
</svg>
