<svg width="24" height="25" viewBox="0 0 24 25" fill="none" xmlns="http://www.w3.org/2000/svg">
<path fill-rule="evenodd" clip-rule="evenodd" d="M1.50012 12.5321C1.50012 12.3332 1.57914 12.1424 1.71979 12.0017C1.86045 11.8611 2.05121 11.7821 2.25012 11.7821H19.9396L15.2191 7.06308C15.1494 6.99334 15.0941 6.91056 15.0563 6.81945C15.0186 6.72834 14.9992 6.63069 14.9992 6.53208C14.9992 6.43346 15.0186 6.33581 15.0563 6.2447C15.0941 6.15359 15.1494 6.07081 15.2191 6.00108C15.2889 5.93134 15.3716 5.87603 15.4627 5.83829C15.5539 5.80055 15.6515 5.78113 15.7501 5.78113C15.8487 5.78113 15.9464 5.80055 16.0375 5.83829C16.1286 5.87603 16.2114 5.93134 16.2811 6.00108L22.2811 12.0011C22.351 12.0707 22.4064 12.1535 22.4442 12.2446C22.482 12.3357 22.5015 12.4334 22.5015 12.5321C22.5015 12.6307 22.482 12.7284 22.4442 12.8195C22.4064 12.9106 22.351 12.9934 22.2811 13.0631L16.2811 19.0631C16.2114 19.1328 16.1286 19.1881 16.0375 19.2259C15.9464 19.2636 15.8487 19.283 15.7501 19.283C15.6515 19.283 15.5539 19.2636 15.4627 19.2259C15.3716 19.1881 15.2889 19.1328 15.2191 19.0631C15.1494 18.9933 15.0941 18.9106 15.0563 18.8195C15.0186 18.7283 14.9992 18.6307 14.9992 18.5321C14.9992 18.4335 15.0186 18.3358 15.0563 18.2447C15.0941 18.1536 15.1494 18.0708 15.2191 18.0011L19.9396 13.2821H2.25012C2.05121 13.2821 1.86045 13.2031 1.71979 13.0624C1.57914 12.9218 1.50012 12.731 1.50012 12.5321Z" fill="white"/>
</svg>
