<svg width="57" height="56" viewBox="0 0 57 56" fill="none" xmlns="http://www.w3.org/2000/svg">
<path d="M49.455 22.0844L30.8984 3.52773C28.9801 1.6093 25.8583 1.60919 23.9398 3.52773C22.2151 5.25225 22.0666 7.88238 23.3402 9.76046L23.3144 9.88963C21.9765 16.5795 18.7194 22.6656 13.895 27.4899L5.38356 36.0013C3.46053 37.9245 3.4602 41.0369 5.38356 42.96L10.0226 47.599C11.9455 49.522 15.0581 49.5222 16.9812 47.599L18.141 46.4392L26.2595 54.5577C28.1825 56.4808 31.2949 56.4809 33.218 54.5577C35.1366 52.6392 35.1366 49.5176 33.218 47.5991L29.7387 44.1198L30.8985 42.96C32.8215 41.0371 32.8218 37.9247 30.8985 36.0015L30.1104 35.2132C33.9876 32.4986 38.3909 30.6087 43.0933 29.6682L43.2241 29.6421C45.1439 30.9383 47.7679 30.7299 49.455 29.0428H49.4551C51.3734 27.1245 51.3734 24.0029 49.455 22.0844ZM14.6617 45.2795C14.0208 45.9203 12.983 45.9204 12.3421 45.2794L7.70307 40.6404C7.06202 39.9992 7.06202 38.9619 7.70307 38.3209L15.8214 30.2024L22.7801 37.161C21.9858 37.9553 15.4756 44.4655 14.6617 45.2795ZM30.8984 49.9185C31.5378 50.5579 31.5378 51.5985 30.8984 52.238C30.259 52.8774 29.2183 52.8774 28.5789 52.238L20.4604 44.1196L22.7801 41.8001L30.8984 49.9185ZM25.0996 39.4806C25.5926 38.9875 26.3307 38.2323 27.4955 37.2374L28.5789 38.3209C29.2199 38.9619 29.2199 39.9992 28.5789 40.6404L27.4191 41.8002L25.0996 39.4806ZM25.1692 34.9113L18.071 27.8131C21.875 23.4207 24.5991 18.2358 26.0565 12.603L40.3793 26.9259C34.7465 28.3832 29.5617 31.1073 25.1692 34.9113ZM47.1352 26.7232C46.4942 27.3641 45.4567 27.3641 44.8157 26.7232L26.2593 8.16676C25.6182 7.5256 25.6182 6.48829 26.2593 5.84725C26.9003 5.2062 27.9378 5.2062 28.5789 5.84725L47.1352 24.4036C47.7746 25.0431 47.7746 26.0836 47.1352 26.7232Z" fill="#17C298"/>
<path d="M16.9812 36.0014C16.3408 35.3609 15.3022 35.3609 14.6617 36.0014L12.3422 38.3209C11.7017 38.9614 11.7017 39.9999 12.3422 40.6404C12.9826 41.2809 14.0213 41.2809 14.6617 40.6404L16.9812 38.3209C17.6217 37.6804 17.6217 36.6419 16.9812 36.0014Z" fill="#17C298"/>
<path d="M38.4317 0C37.5258 0 36.7915 0.734342 36.7915 1.64018V4.92055C36.7915 5.8264 37.5258 6.56074 38.4317 6.56074C39.3375 6.56074 40.0719 5.8264 40.0719 4.92055V1.64018C40.0719 0.734342 39.3375 0 38.4317 0Z" fill="#17C298"/>
<path d="M51.5531 13.1213H48.2728C47.3669 13.1213 46.6326 13.8557 46.6326 14.7615C46.6326 15.6674 47.3669 16.4017 48.2728 16.4017H51.5531C52.459 16.4017 53.1933 15.6674 53.1933 14.7615C53.1933 13.8557 52.4589 13.1213 51.5531 13.1213Z" fill="#17C298"/>
<path d="M49.4323 3.7604C48.7919 3.1199 47.7533 3.1199 47.1128 3.7604L43.8324 7.04077C43.1919 7.68127 43.1919 8.71978 43.8324 9.36028C44.4728 10.0008 45.5114 10.0009 46.1519 9.36028L49.4323 6.07991C50.0728 5.43942 50.0728 4.40101 49.4323 3.7604Z" fill="#17C298"/>
</svg>
