<svg width="57" height="56" viewBox="0 0 57 56" fill="none" xmlns="http://www.w3.org/2000/svg">
<g clip-path="url(#clip0_1_2584)">
<path d="M51.5034 0.109375H5.34717C2.63325 0.109375 0.425293 2.31733 0.425293 5.03125V50.9688C0.425293 53.6827 2.63325 55.8906 5.34717 55.8906H51.5034C54.2173 55.8906 56.4253 53.6827 56.4253 50.9688V5.03125C56.4253 2.31733 54.2173 0.109375 51.5034 0.109375ZM5.34717 3.39062H51.5034C52.4081 3.39062 53.144 4.12661 53.144 5.03125V13.2344H3.70654V5.03125C3.70654 4.12661 4.44253 3.39062 5.34717 3.39062ZM51.5034 52.6094H5.34717C4.44253 52.6094 3.70654 51.8734 3.70654 50.9688V16.5156H53.144V50.9688C53.144 51.8734 52.4081 52.6094 51.5034 52.6094Z" fill="#FD7B27"/>
<path d="M33.9934 21.5706C33.1606 21.2137 32.1961 21.5994 31.8392 22.4322L21.9954 45.4009C21.6384 46.2337 22.0243 47.1983 22.8571 47.5552C23.6902 47.9122 24.6545 47.5261 25.0113 46.6935L34.8551 23.7248C35.2121 22.8919 34.8262 21.9274 33.9934 21.5706Z" fill="#FD7B27"/>
<path d="M19.8627 26.9754C19.2966 26.2678 18.264 26.1532 17.5568 26.7192L9.35364 33.2817C8.53344 33.9376 8.53289 35.1875 9.35364 35.8439L17.5568 42.4064C18.2643 42.9726 19.2969 42.8577 19.8627 42.1503C20.4287 41.4427 20.3141 40.4102 19.6065 39.8443L13.0048 34.5628L19.6065 29.2814C20.3141 28.7154 20.4287 27.683 19.8627 26.9754Z" fill="#FD7B27"/>
<path d="M47.4971 33.2813L39.294 26.7188C38.5864 26.1526 37.5539 26.2674 36.988 26.9749C36.422 27.6825 36.5366 28.715 37.2443 29.2809L43.8459 34.5624L37.2443 39.8438C36.5366 40.4098 36.422 41.4422 36.988 42.1497C37.5548 42.858 38.5874 42.9713 39.294 42.4059L47.4971 35.8434C48.3173 35.1875 48.3178 33.9377 47.4971 33.2813Z" fill="#FD7B27"/>
<path d="M8.73779 9.95312C9.64389 9.95312 10.3784 9.21859 10.3784 8.3125C10.3784 7.40641 9.64389 6.67188 8.73779 6.67188C7.8317 6.67188 7.09717 7.40641 7.09717 8.3125C7.09717 9.21859 7.8317 9.95312 8.73779 9.95312Z" fill="#FD7B27"/>
<path d="M15.3003 9.95312C16.2064 9.95312 16.9409 9.21859 16.9409 8.3125C16.9409 7.40641 16.2064 6.67188 15.3003 6.67188C14.3942 6.67188 13.6597 7.40641 13.6597 8.3125C13.6597 9.21859 14.3942 9.95312 15.3003 9.95312Z" fill="#FD7B27"/>
<path d="M21.8628 9.95312C22.7689 9.95312 23.5034 9.21859 23.5034 8.3125C23.5034 7.40641 22.7689 6.67188 21.8628 6.67188C20.9567 6.67188 20.2222 7.40641 20.2222 8.3125C20.2222 9.21859 20.9567 9.95312 21.8628 9.95312Z" fill="#FD7B27"/>
<path d="M38.269 9.95312H48.1128C49.0189 9.95312 49.7534 9.21856 49.7534 8.3125C49.7534 7.40644 49.0189 6.67188 48.1128 6.67188H38.269C37.363 6.67188 36.6284 7.40644 36.6284 8.3125C36.6284 9.21856 37.363 9.95312 38.269 9.95312Z" fill="#FD7B27"/>
</g>
<defs>
<clipPath id="clip0_1_2584">
<rect width="56" height="56" fill="white" transform="translate(0.425293)"/>
</clipPath>
</defs>
</svg>
