<svg width="160" height="152" viewBox="0 0 160 152" fill="none" xmlns="http://www.w3.org/2000/svg">
<path d="M84.0302 13.9247L83.9707 13.8652L75.3396 3.38883C74.6848 2.61501 74.8039 1.42452 75.5777 0.769744C76.3515 0.11497 77.542 0.234017 78.1967 1.00784L86.8279 11.4842C87.4826 12.258 87.3636 13.4485 86.5898 14.1033C85.816 14.7581 84.685 14.6986 84.0302 13.9247Z" fill="#0BC0EB"/>
<path d="M90.161 4.51953C89.5062 3.74571 89.5062 2.61474 90.28 1.90044C91.0538 1.18614 92.1848 1.24567 92.8991 1.95997L103.197 12.853C103.911 13.6268 103.852 14.7578 103.137 15.4721C102.364 16.1864 101.233 16.1269 100.518 15.4126L90.161 4.51953C90.2205 4.57906 90.161 4.57906 90.161 4.51953Z" fill="#0BC0EB"/>
<path d="M72.899 21.4248C72.2443 20.7105 72.2443 19.6391 72.899 18.9248C73.6133 18.151 74.8038 18.151 75.5181 18.8057L86.1731 28.7464C86.9469 29.4607 86.9469 30.6512 86.2921 31.3655C85.5778 32.1393 84.3873 32.1393 83.673 31.4845L73.0181 21.5439C72.9586 21.4844 72.9586 21.4844 72.899 21.4248Z" fill="#0BC0EB"/>
<path d="M56.2317 27.8535C55.5174 27.0797 55.577 25.8892 56.3508 25.2344C57.1246 24.5201 58.2556 24.5797 58.9699 25.294L59.0294 25.3535L66.589 33.5679C67.3033 34.3417 67.2438 35.4727 66.47 36.187C65.6962 36.9013 64.5057 36.8418 63.8509 36.068L56.2317 27.8535Z" fill="#0BC0EB"/>
<path d="M42.7198 34.4014C42.0055 33.6275 42.065 32.4966 42.8388 31.7823C43.6126 31.068 44.8031 31.1275 45.4579 31.9013L49.9223 36.6633C50.6366 37.4371 50.5771 38.5681 49.8032 39.2824C49.0294 39.9967 47.8389 39.9372 47.1841 39.1634L42.7198 34.4014Z" fill="#0BC0EB"/>
<path d="M19.9809 36.0089C19.3262 35.2946 19.3262 34.1041 20.0405 33.4493C20.7548 32.735 21.9453 32.735 22.6596 33.4493L38.136 49.1043C38.8503 49.8186 38.8503 51.0091 38.136 51.7234C37.4217 52.4377 36.2313 52.4377 35.517 51.7234L19.9809 36.0089C20.0405 36.0684 20.0405 36.0684 19.9809 36.0089Z" fill="#0BC0EB"/>
<path d="M20.0408 58.0923C19.386 57.378 19.386 56.247 20.1003 55.5327C20.8146 54.8184 22.0051 54.7589 22.7194 55.4732L33.1362 65.5924C33.8505 66.3067 33.9101 67.4972 33.1958 68.2115C32.4815 68.9258 31.2909 68.9853 30.5766 68.271L20.1598 58.1518C20.1003 58.1518 20.0408 58.0923 20.0408 58.0923Z" fill="#0BC0EB"/>
<path d="M1.05225 58.2701C0.397475 57.5558 0.397461 56.4248 1.11176 55.7105C1.82606 54.9962 3.01657 54.9962 3.73087 55.7105L17.3025 69.2822C18.0168 69.9965 18.0168 71.187 17.3025 71.9013C16.5882 72.6156 15.3978 72.6156 14.6835 71.9013L1.11176 58.3296L1.05225 58.2701Z" fill="#0BC0EB"/>
<path d="M103.137 37.5566C103.078 37.4971 103.018 37.4376 103.018 37.378L95.935 27.4374C95.3397 26.604 95.5183 25.4135 96.3516 24.8183C97.185 24.223 98.3755 24.4016 98.9707 25.235L106.054 35.1756C106.649 36.009 106.471 37.1995 105.638 37.7947C104.864 38.39 103.792 38.2709 103.137 37.5566Z" fill="#0BC0EB"/>
<path d="M112.126 33.8057C111.471 33.0914 111.471 31.9605 112.185 31.2462C112.9 30.5319 114.09 30.5319 114.804 31.2462L120.459 36.8415C121.173 37.5558 121.173 38.7463 120.459 39.4606C119.745 40.1749 118.554 40.1749 117.84 39.4606L112.185 33.8653C112.185 33.8653 112.185 33.8653 112.126 33.8057Z" fill="#0BC0EB"/>
<path d="M107.662 56.8425C107.602 56.783 107.543 56.7234 107.543 56.6639L97.3639 42.5565C96.7687 41.7232 96.9473 40.5327 97.7806 39.9374C98.614 39.3422 99.8045 39.5208 100.4 40.3541L110.578 54.4615C111.174 55.2948 110.995 56.4853 110.162 57.0806C109.388 57.6758 108.317 57.5568 107.662 56.8425Z" fill="#0BC0EB"/>
<path d="M92.7803 57.1401L92.7208 57.0806L84.9231 47.7352C84.2683 46.9613 84.3873 45.7708 85.1611 45.1161C85.935 44.4613 87.185 44.6399 87.7803 45.3542L95.578 54.6996C96.2328 55.4734 96.1137 56.6639 95.3399 57.3187C94.5661 57.9139 93.4351 57.8544 92.7803 57.1401Z" fill="#0BC0EB"/>
<path d="M71.4702 53.6876C70.8154 52.9733 70.8154 51.8423 71.5297 51.128C72.244 50.4137 73.4345 50.4137 74.1488 51.128L80.7561 57.7353C81.5299 58.4496 81.4704 59.6401 80.7561 60.3544C80.0418 61.0687 78.8513 61.0687 78.137 60.3544L71.5297 53.7471C71.5297 53.7471 71.4702 53.7471 71.4702 53.6876Z" fill="#0BC0EB"/>
<path d="M63.0772 62.5562L63.0176 62.4967L58.3152 56.6633C57.6604 55.8299 57.7794 54.6989 58.6128 54.0442C59.4461 53.3894 60.5771 53.5085 61.2319 54.3418L65.9343 60.1752C66.5891 61.0086 66.4701 62.1396 65.6367 62.7943C64.8629 63.3896 63.7319 63.33 63.0772 62.5562Z" fill="#0BC0EB"/>
<path d="M49.2672 67.5568C48.6124 66.8425 48.6124 65.7115 49.2672 64.9972C49.9815 64.2234 51.172 64.2234 51.8863 64.9377L62.4222 74.9379C63.196 75.6522 63.196 76.8427 62.4817 77.557C61.7674 78.3308 60.5769 78.3308 59.8626 77.6165L49.3267 67.6163C49.3267 67.6163 49.2672 67.6163 49.2672 67.5568Z" fill="#0BC0EB"/>
<path d="M44.922 80.9494L39.9219 75.4136C39.2076 74.6397 39.2671 73.4493 40.041 72.7945C40.8148 72.0802 42.0053 72.1397 42.6601 72.9135L47.6601 78.4493C48.3744 79.2232 48.3149 80.4137 47.5411 81.0684C46.8268 81.7827 45.6363 81.7232 44.922 80.9494Z" fill="#0BC0EB"/>
<path d="M36.6482 93.5094C36.6482 93.4498 36.5886 93.4498 36.5886 93.3903L25.7551 79.8782C25.1003 79.0448 25.2194 77.9139 26.0527 77.2591C26.8861 76.6043 28.0171 76.7829 28.6718 77.5567L39.4458 91.1284C40.1006 91.9617 39.9816 93.0927 39.1482 93.7475C38.4339 94.3427 37.3029 94.2237 36.6482 93.5094Z" fill="#0BC0EB"/>
<path d="M73.0182 75.6518C72.3634 74.9375 72.3634 73.8661 73.0182 73.1518C73.7325 72.378 74.8634 72.3185 75.6373 73.0328L86.4708 82.7353C87.2446 83.4496 87.3041 84.5806 86.6494 85.3544C85.9351 86.1282 84.8041 86.1877 84.0303 85.533L73.1967 75.8304C73.0777 75.7709 73.0182 75.7114 73.0182 75.6518Z" fill="#0BC0EB"/>
<path d="M85.8155 70.9496C85.1608 70.2353 85.1608 69.1638 85.8155 68.4495C86.4703 67.6757 87.6608 67.6162 88.4346 68.271L97.9586 76.664C98.7324 77.3187 98.7919 78.5092 98.1372 79.2831C97.4824 80.0569 96.2919 80.1164 95.5181 79.4616L85.9941 71.0686C85.9346 71.0686 85.8751 71.0091 85.8155 70.9496Z" fill="#0BC0EB"/>
<path d="M130.34 70.3546C130.281 70.2951 130.281 70.2951 130.221 70.2356L117.245 53.6281C116.59 52.7948 116.768 51.6638 117.542 51.009C118.376 50.3542 119.566 50.4733 120.161 51.3066L133.138 67.9141C133.793 68.7474 133.614 69.8784 132.84 70.5332C132.126 71.188 130.995 71.0689 130.34 70.3546Z" fill="#0BC0EB"/>
<path d="M112.483 66.3663C111.828 65.652 111.828 64.521 112.542 63.8067C113.257 63.0924 114.447 63.0924 115.162 63.8067L121.471 70.0568C122.185 70.7711 122.185 71.9616 121.471 72.6759C120.757 73.3902 119.566 73.3902 118.852 72.6759L112.542 66.4258C112.542 66.3663 112.542 66.3663 112.483 66.3663Z" fill="#0BC0EB"/>
<path d="M109.923 80.6525C109.268 79.9382 109.268 78.7477 109.983 78.0334C110.697 77.3191 111.887 77.3191 112.602 78.0929L120.399 86.1883C121.114 86.9026 121.114 88.0931 120.34 88.8074C119.626 89.5217 118.435 89.5217 117.721 88.7479L109.923 80.6525C109.983 80.712 109.923 80.6525 109.923 80.6525Z" fill="#0BC0EB"/>
<path d="M107.602 108.688L95.9947 95.831C95.2804 95.0572 95.3399 93.8667 96.1137 93.212C96.8875 92.4977 98.078 92.5572 98.7328 93.331L110.34 106.188C111.054 106.962 110.995 108.153 110.221 108.807C109.447 109.522 108.257 109.462 107.602 108.688Z" fill="#0BC0EB"/>
<path d="M65.3985 90.1172C64.7437 89.3434 64.7437 88.2124 65.5176 87.4981C66.2914 86.7838 67.4224 86.8433 68.1367 87.5576L81.6488 101.784C82.3631 102.498 82.3036 103.689 81.5893 104.403C80.8155 105.117 79.6845 105.058 78.9702 104.344L65.3985 90.1172C65.3985 90.1767 65.3985 90.1172 65.3985 90.1172Z" fill="#0BC0EB"/>
<path d="M49.1482 102.378C48.4934 101.664 48.4934 100.533 49.2077 99.8189C49.922 99.1046 51.1125 99.1046 51.8268 99.8189L59.0888 107.14C59.8031 107.855 59.8031 109.045 59.0888 109.76C58.3745 110.474 57.184 110.474 56.4697 109.76L49.2077 102.438C49.2077 102.378 49.2077 102.378 49.1482 102.378Z" fill="#0BC0EB"/>
<path d="M44.1485 122.082C44.1485 122.022 44.1485 122.022 44.1485 122.082L32.1245 108.331C31.4697 107.558 31.5292 106.367 32.303 105.712C33.0769 105.058 34.2079 105.177 34.9222 105.891L46.8866 119.641C47.5414 120.415 47.4819 121.606 46.7081 122.26C45.9938 122.856 44.8033 122.796 44.1485 122.082Z" fill="#0BC0EB"/>
<path d="M78.9702 115.653C78.375 114.998 78.3154 113.927 78.9107 113.212C79.5655 112.439 80.756 112.32 81.5298 112.974L91.4109 121.07C92.1847 121.724 92.3038 122.915 91.649 123.689C90.9943 124.463 89.8038 124.582 89.0299 123.927L79.1488 115.832C79.1488 115.772 79.0298 115.712 78.9702 115.653Z" fill="#0BC0EB"/>
<path d="M65.6365 118.927C64.9817 118.213 64.9817 117.082 65.696 116.367C66.4103 115.653 67.6008 115.653 68.3151 116.367L74.2676 122.32C74.9819 122.975 74.9819 124.225 74.2676 124.939C73.5533 125.653 72.3628 125.653 71.6485 124.939L65.696 118.986C65.696 118.986 65.696 118.927 65.6365 118.927Z" fill="#0BC0EB"/>
<path d="M108.078 123.39L97.7208 111.961C97.0065 111.188 97.066 109.997 97.8398 109.342C98.6136 108.628 99.8041 108.688 100.459 109.461L110.816 120.89C111.531 121.664 111.471 122.854 110.697 123.509C109.923 124.224 108.733 124.164 108.078 123.39Z" fill="#0BC0EB"/>
<path d="M118.912 103.45C118.257 102.676 118.257 101.545 118.971 100.831C119.685 100.116 120.876 100.116 121.59 100.89L129.686 109.283C130.34 110.057 130.4 111.188 129.626 111.902C128.912 112.617 127.721 112.617 127.007 111.843L118.912 103.45C118.912 103.509 118.912 103.45 118.912 103.45Z" fill="#0BC0EB"/>
<path d="M132.781 85.1754C132.126 84.4611 132.126 83.2706 132.84 82.6158C133.555 81.9015 134.745 81.9015 135.459 82.6158L145.281 92.616C146.055 93.3898 145.995 94.5208 145.281 95.2351C144.567 95.9494 143.376 95.9494 142.662 95.2351L132.781 85.1754C132.84 85.1754 132.84 85.1754 132.781 85.1754Z" fill="#0BC0EB"/>
<path d="M143.555 75.4137C142.9 74.6994 142.9 73.5089 143.614 72.7946C144.328 72.0803 145.519 72.0803 146.233 72.8541L155.043 81.9019C155.817 82.6162 155.757 83.8067 154.983 84.521C154.269 85.2353 153.079 85.2353 152.364 84.4615L143.555 75.4137C143.555 75.4732 143.555 75.4137 143.555 75.4137Z" fill="#0BC0EB"/>
<path d="M139.388 110.772C138.733 110.058 138.733 108.986 139.388 108.272C140.102 107.498 141.293 107.439 142.007 108.153L148.972 114.463C149.745 115.177 149.805 116.367 149.091 117.082C148.376 117.855 147.186 117.915 146.471 117.201L139.507 110.891C139.448 110.891 139.388 110.831 139.388 110.772Z" fill="#0BC0EB"/>
<path d="M130.281 129.105L123.078 121.129C122.364 120.355 122.423 119.165 123.197 118.51C123.971 117.796 125.162 117.855 125.816 118.629L133.019 126.605C133.733 127.379 133.674 128.57 132.9 129.224C132.126 129.939 130.995 129.879 130.281 129.105Z" fill="#0BC0EB"/>
<path d="M105.876 136.784C105.161 136.01 105.221 134.819 105.995 134.165C106.769 133.45 107.9 133.51 108.614 134.284L117.781 144.284C118.495 145.058 118.436 146.248 117.662 146.903C116.888 147.617 115.697 147.558 115.043 146.784L105.876 136.784Z" fill="#0BC0EB"/>
<path d="M91.7087 139.463C91.054 138.749 91.054 137.618 91.7683 136.903C92.4826 136.189 93.673 136.189 94.3873 136.903L101.709 144.165C102.483 144.82 102.423 146.07 101.709 146.785C100.995 147.499 99.8041 147.499 99.0898 146.785L91.7683 139.523C91.7683 139.523 91.7087 139.523 91.7087 139.463Z" fill="#0BC0EB"/>
<path d="M88.8516 150.951L88.7921 150.891L79.03 138.867C78.3752 138.094 78.4943 136.903 79.3276 136.248C80.1015 135.594 81.292 135.653 81.9467 136.546L91.7088 148.57C92.3636 149.344 92.2445 150.534 91.4112 151.189C90.6374 151.725 89.5064 151.665 88.8516 150.951Z" fill="#0BC0EB"/>
<path d="M150.281 105.236C149.686 104.581 149.626 103.569 150.162 102.855C150.817 102.022 151.948 101.903 152.781 102.498L158.793 107.141C159.627 107.796 159.746 108.927 159.15 109.76C158.496 110.593 157.365 110.712 156.531 110.117L150.519 105.474C150.46 105.415 150.341 105.355 150.281 105.236Z" fill="#0BC0EB"/>
</svg>
