<svg width="65" height="124" viewBox="0 0 65 124" fill="none" xmlns="http://www.w3.org/2000/svg">
<path d="M3.52021 11.629L3.47185 11.5806L-3.53812 3.07196C-4.06991 2.44348 -3.97321 1.47659 -3.34473 0.944798C-2.71625 0.413007 -1.74937 0.509693 -1.21758 1.13817L5.79239 9.64683C6.32418 10.2753 6.2275 11.2422 5.59902 11.774C4.97054 12.3058 4.052 12.2574 3.52021 11.629Z" fill="#828C8B"/>
<path d="M8.49933 3.9905C7.96754 3.36202 7.96754 2.44348 8.59602 1.86334C9.2245 1.28321 10.143 1.33155 10.7232 1.91169L19.0868 10.7587C19.6669 11.3872 19.6186 12.3058 19.0384 12.8859C18.41 13.4661 17.4914 13.4177 16.9113 12.8376L8.49933 3.9905C8.54767 4.03885 8.49933 4.03885 8.49933 3.9905Z" fill="#828C8B"/>
<path d="M-5.52108 17.7202C-6.05287 17.1401 -6.05287 16.2699 -5.52108 15.6898C-4.94094 15.0613 -3.97407 15.0613 -3.39393 15.5931L5.25976 23.6666C5.88824 24.2468 5.88825 25.2137 5.35646 25.7938C4.77632 26.4223 3.80942 26.4223 3.22928 25.8905L-5.42438 17.8169C-5.47273 17.7686 -5.47273 17.7686 -5.52108 17.7202Z" fill="#828C8B"/>
<path d="M19.0382 30.8223C18.9898 30.774 18.9415 30.7256 18.9415 30.6773L13.1885 22.6037C12.705 21.9269 12.8501 20.96 13.5269 20.4766C14.2037 19.9931 15.1706 20.1382 15.6541 20.815L21.4071 28.8885C21.8905 29.5653 21.7455 30.5322 21.0687 31.0157C20.4402 31.4991 19.57 31.4024 19.0382 30.8223Z" fill="#828C8B"/>
<path d="M26.3378 27.7756C25.806 27.1955 25.806 26.277 26.3862 25.6968C26.9663 25.1167 27.9332 25.1167 28.5133 25.6968L33.1061 30.2412C33.6862 30.8213 33.6862 31.7882 33.1061 32.3684C32.5259 32.9485 31.559 32.9485 30.9789 32.3684L26.3862 27.824C26.3862 27.824 26.3862 27.824 26.3378 27.7756Z" fill="#828C8B"/>
<path d="M22.7127 46.4857C22.6644 46.4374 22.6161 46.389 22.6161 46.3407L14.3491 34.883C13.8657 34.2062 14.0107 33.2393 14.6875 32.7559C15.3644 32.2724 16.3313 32.4175 16.8147 33.0943L25.0816 44.5519C25.5651 45.2288 25.42 46.1957 24.7432 46.6791C24.1147 47.1626 23.2445 47.0659 22.7127 46.4857Z" fill="#828C8B"/>
<path d="M10.6266 46.7273L10.5782 46.6789L4.2451 39.0888C3.71331 38.4604 3.80998 37.4935 4.43846 36.9617C5.06694 36.4299 6.08219 36.5749 6.56563 37.155L12.8988 44.7451C13.4306 45.3736 13.3339 46.3405 12.7054 46.8723C12.0769 47.3558 11.1584 47.3074 10.6266 46.7273Z" fill="#828C8B"/>
<path d="M-6.68123 43.9226C-7.21302 43.3425 -7.213 42.4239 -6.63287 41.8438C-6.05273 41.2637 -5.08586 41.2637 -4.50572 41.8438L0.860545 47.21C1.48903 47.7902 1.44068 48.7571 0.860545 49.3372C0.28041 49.9173 -0.686493 49.9173 -1.26663 49.3372L-6.63287 43.971C-6.63287 43.971 -6.68123 43.971 -6.68123 43.9226Z" fill="#828C8B"/>
<path d="M-5.42342 61.7622C-5.95521 61.1821 -5.95521 60.3119 -5.42342 59.7317C-4.84329 59.1032 -3.92476 59.0549 -3.29628 59.635L5.50245 67.5152C6.13093 68.0953 6.17926 69.0139 5.64747 69.6424C5.06734 70.2708 4.14881 70.3192 3.52033 69.7874L-5.27839 61.9072C-5.37508 61.8589 -5.42342 61.8105 -5.42342 61.7622Z" fill="#828C8B"/>
<path d="M4.97062 57.9425C4.43883 57.3623 4.43883 56.4921 4.97062 55.912C5.50241 55.2835 6.46929 55.2352 7.09776 55.767L14.8329 62.5836C15.4614 63.1154 15.5097 64.0822 14.9779 64.7107C14.4461 65.3392 13.4793 65.3875 12.8508 64.8558L5.11565 58.0392C5.0673 58.0392 5.01896 57.9908 4.97062 57.9425Z" fill="#828C8B"/>
<path d="M41.131 57.4605C41.0826 57.4121 41.0826 57.4121 41.0343 57.3638L30.4952 43.8756C29.9634 43.1988 30.1084 42.2803 30.7369 41.7485C31.4137 41.2167 32.3806 41.3134 32.864 41.9902L43.4032 55.4783C43.935 56.1552 43.7899 57.0737 43.1615 57.6055C42.5813 58.1373 41.6628 58.0406 41.131 57.4605Z" fill="#828C8B"/>
<path d="M26.6284 54.221C26.0966 53.6408 26.0966 52.7223 26.6767 52.1421C27.2568 51.562 28.2237 51.562 28.8039 52.1421L33.9284 57.2183C34.5085 57.7985 34.5085 58.7653 33.9284 59.3455C33.3482 59.9256 32.3814 59.9256 31.8012 59.3455L26.6767 54.2693C26.6767 54.2209 26.6767 54.221 26.6284 54.221Z" fill="#828C8B"/>
<path d="M24.5507 65.8225C24.0189 65.2424 24.0189 64.2755 24.5991 63.6954C25.1792 63.1152 26.1461 63.1152 26.7262 63.7437L33.0594 70.3186C33.6395 70.8987 33.6395 71.8656 33.011 72.4457C32.4309 73.0259 31.464 73.0259 30.8838 72.3974L24.5507 65.8225C24.5991 65.8709 24.5507 65.8225 24.5507 65.8225Z" fill="#828C8B"/>
<path d="M22.6638 88.5928L13.2366 78.1504C12.6565 77.5219 12.7048 76.555 13.3333 76.0232C13.9618 75.4431 14.9286 75.4914 15.4604 76.1199L24.8876 86.5623C25.4678 87.1908 25.4194 88.1577 24.791 88.6895C24.1625 89.2696 23.1956 89.2213 22.6638 88.5928Z" fill="#828C8B"/>
<path d="M-11.6125 73.5105C-12.1443 72.8821 -12.1443 71.9635 -11.5158 71.3834C-10.8873 70.8032 -9.96876 70.8516 -9.38862 71.4317L1.58561 82.9861C2.16575 83.5662 2.11738 84.5331 1.53725 85.1132C0.90877 85.6934 -0.0097599 85.645 -0.589895 85.0649L-11.6125 73.5105C-11.6125 73.5589 -11.6125 73.5105 -11.6125 73.5105Z" fill="#828C8B"/>
<path d="M-0.588891 94.2512C-1.07234 93.7194 -1.1207 92.8492 -0.637254 92.269C-0.105463 91.6406 0.861441 91.5439 1.48992 92.0757L9.51511 98.6505C10.1436 99.1823 10.2403 100.149 9.7085 100.778C9.17671 101.406 8.20981 101.503 7.58133 100.971L-0.443863 94.3962C-0.443863 94.3478 -0.540547 94.2995 -0.588891 94.2512Z" fill="#828C8B"/>
<path d="M23.0509 100.535L14.6389 91.2524C14.0588 90.6239 14.1071 89.6571 14.7356 89.1253C15.3641 88.5451 16.331 88.5935 16.8628 89.222L25.2748 98.5041C25.8549 99.1326 25.8065 100.099 25.1781 100.631C24.5496 101.211 23.5827 101.163 23.0509 100.535Z" fill="#828C8B"/>
<path d="M31.8491 84.3396C31.3173 83.7111 31.3173 82.7926 31.8974 82.2124C32.4775 81.6323 33.4444 81.6323 34.0246 82.2608L40.5994 89.0774C41.1312 89.7059 41.1796 90.6244 40.5511 91.2045C39.971 91.7847 39.004 91.7847 38.4239 91.1562L31.8491 84.3396C31.8491 84.388 31.8491 84.3396 31.8491 84.3396Z" fill="#828C8B"/>
<path d="M43.1147 69.4973C42.5829 68.9172 42.5829 67.9503 43.163 67.4185C43.7432 66.8384 44.71 66.8384 45.2902 67.4185L53.267 75.5404C53.8955 76.1689 53.8472 77.0874 53.267 77.6675C52.6869 78.2477 51.72 78.2477 51.1399 77.6675L43.1147 69.4973C43.163 69.4973 43.163 69.4973 43.1147 69.4973Z" fill="#828C8B"/>
<path d="M51.8637 61.5681C51.3319 60.988 51.3319 60.0211 51.912 59.441C52.4922 58.8608 53.4591 58.8608 54.0392 59.4893L61.1942 66.8377C61.8227 67.4178 61.7743 68.3847 61.1458 68.9648C60.5657 69.545 59.5988 69.545 59.0187 68.9165L51.8637 61.5681C51.8637 61.6165 51.8637 61.5681 51.8637 61.5681Z" fill="#828C8B"/>
<path d="M48.4804 90.2856C47.9486 89.7055 47.9486 88.8353 48.4804 88.2552C49.0605 87.6267 50.0274 87.5783 50.6075 88.1585L56.2639 93.283C56.8923 93.8631 56.9407 94.83 56.3605 95.4102C55.7804 96.0386 54.8135 96.087 54.2334 95.5069L48.5771 90.3823C48.5287 90.3823 48.4804 90.334 48.4804 90.2856Z" fill="#828C8B"/>
<path d="M41.0833 105.177L35.2337 98.6987C34.6535 98.0702 34.7019 97.1033 35.3304 96.5716C35.9588 95.9914 36.9257 96.0398 37.4575 96.6682L43.3072 103.146C43.8874 103.775 43.839 104.742 43.2105 105.274C42.582 105.854 41.6635 105.805 41.0833 105.177Z" fill="#828C8B"/>
<path d="M21.263 111.412C20.6828 110.784 20.7312 109.817 21.3597 109.285C21.9881 108.705 22.9067 108.753 23.4868 109.382L30.9319 117.504C31.512 118.132 31.4637 119.099 30.8352 119.631C30.2067 120.211 29.2398 120.162 28.708 119.534L21.263 111.412Z" fill="#828C8B"/>
<path d="M9.75578 113.588C9.22399 113.008 9.22401 112.089 9.80414 111.509C10.3843 110.929 11.3512 110.929 11.9313 111.509L17.8777 117.407C18.5061 117.939 18.4578 118.954 17.8777 119.534C17.2975 120.114 16.3307 120.114 15.7505 119.534L9.80414 113.636C9.80414 113.636 9.75578 113.636 9.75578 113.588Z" fill="#828C8B"/>
<path d="M7.43626 122.918L7.38793 122.87L-0.5406 113.104C-1.07239 112.476 -0.975701 111.509 -0.298877 110.977C0.329603 110.445 1.29651 110.493 1.8283 111.219L9.75679 120.984C10.2886 121.613 10.1919 122.58 9.51507 123.111C8.88659 123.546 7.96805 123.498 7.43626 122.918Z" fill="#828C8B"/>
<path d="M57.3275 85.7907C56.8441 85.2589 56.7958 84.437 57.2309 83.8569C57.7627 83.18 58.6812 83.0834 59.3581 83.5668L64.2408 87.3377C64.9177 87.8695 65.0144 88.788 64.5309 89.4648C63.9991 90.1417 63.0806 90.2384 62.4037 89.7549L57.5209 85.984C57.4726 85.9357 57.3759 85.8873 57.3275 85.7907Z" fill="#828C8B"/>
</svg>
